<svg id="visual" viewBox="0 0 900 600" width="900" height="600" xmlns="http://www.w3.org/2000/svg" xmlns:xlink="http://www.w3.org/1999/xlink" version="1.1"><path d="M0 417L21.5 424.8C43 432.7 86 448.3 128.8 459.2C171.7 470 214.3 476 257.2 471.7C300 467.3 343 452.7 385.8 454.8C428.7 457 471.3 476 514.2 482.5C557 489 600 483 642.8 477.3C685.7 471.7 728.3 466.3 771.2 453C814 439.7 857 418.3 878.5 407.7L900 397L900 601L878.5 601C857 601 814 601 771.2 601C728.3 601 685.7 601 642.8 601C600 601 557 601 514.2 601C471.3 601 428.7 601 385.8 601C343 601 300 601 257.2 601C214.3 601 171.7 601 128.8 601C86 601 43 601 21.5 601L0 601Z" fill="#000000" stroke-linecap="round" stroke-linejoin="miter"></path></svg>